<?xml version="1.0" encoding="UTF-8"?>
<svg version="1.1" xmlns="http://www.w3.org/2000/svg" width="512" height="512">
<path d="M0 0 C3.83444997 0.00684683 7.66886037 -0.00371841 11.50330222 -0.01193976 C18.99639875 -0.02522015 26.4894047 -0.0224248 33.98250466 -0.01370184 C40.07755465 -0.00690264 46.17257942 -0.0060182 52.26763213 -0.00927329 C53.13799436 -0.00973299 54.0083566 -0.01019269 54.90509345 -0.01066632 C56.67371075 -0.01162558 58.44232803 -0.01259822 60.21094532 -0.01358409 C76.7625644 -0.02212144 93.31413348 -0.01233018 109.86574436 0.00381701 C124.03890574 0.01721631 138.21199337 0.01489207 152.38515341 0.00106072 C168.87951492 -0.01502851 185.3738327 -0.02129514 201.86820096 -0.01210248 C203.63030179 -0.01114693 205.39240262 -0.01020382 207.15450346 -0.00927329 C208.0212861 -0.00881046 208.88806873 -0.00834764 209.78111751 -0.00787079 C215.8617098 -0.00529073 221.94227412 -0.00963059 228.02286208 -0.01671195 C235.44337854 -0.02516452 242.86379992 -0.02276852 250.28430562 -0.00686972 C254.06356747 0.00096318 257.84267134 0.00419082 261.62193167 -0.00581717 C297.41455691 -0.09272932 297.41455691 -0.09272932 312.52797568 6.57967401 C313.2320455 6.88228143 313.93611533 7.18488885 314.6615206 7.49666619 C335.1872462 16.63167765 353.34858029 34.43121117 361.77797568 55.39217401 C366.05732857 67.23627863 367.28850892 79.39493602 368.71547568 91.82967401 C368.99472443 94.20175496 369.27479156 96.57373967 369.55556357 98.9456408 C370.03996404 103.04771813 370.52272695 107.14995286 370.99964011 111.25290704 C372.23095419 121.83304449 373.50489336 132.40758788 374.79617083 142.98057103 C375.99572605 152.80520636 377.18245495 162.63134406 378.36167872 172.45844007 C379.10723492 178.66833785 379.85788863 184.87751712 380.62120688 191.08525872 C389.24662732 261.35443454 389.24662732 261.35443454 381.77797568 280.39217401 C381.21723349 281.86943963 381.21723349 281.86943963 380.64516318 283.37654901 C374.35213681 298.46314202 363.60196718 310.40657213 348.77797568 317.39217401 C330.85225744 324.14768523 313.81356335 323.83484657 296.07094443 316.95467401 C277.99170089 308.66254025 266.08984516 293.57571118 258.77797568 275.39217401 C255.98924725 267.85470216 253.48646588 260.21803214 250.98671591 252.58089471 C249.82710746 249.03884044 248.65423165 245.50138672 247.47914755 241.96443963 C246.73555071 239.71534124 245.99268439 237.46600116 245.25063193 235.21639276 C244.90073706 234.1582084 244.55084219 233.10002404 244.19034445 232.00977349 C243.87258551 231.03728158 243.55482657 230.06478967 243.22743857 229.0628283 C242.80610396 227.77834046 242.80610396 227.77834046 242.37625754 226.46790338 C241.77797568 224.39217401 241.77797568 224.39217401 241.77797568 222.39217401 C240.78797568 222.39217401 239.79797568 222.39217401 238.77797568 222.39217401 C238.63102255 222.94904901 238.48406943 223.50592401 238.33266318 224.07967401 C235.23469225 234.61989692 228.00499329 243.37330364 218.34047568 248.74764276 C208.06538439 253.42889323 195.52134221 254.4247777 184.71547568 250.76717401 C173.71878378 245.99972601 164.91837535 237.35168526 160.37172568 226.23983026 C159.77797568 224.39217401 159.77797568 224.39217401 159.77797568 222.39217401 C139.97797568 222.39217401 120.17797568 222.39217401 99.77797568 222.39217401 C98.78797568 225.36217401 97.79797568 228.33217401 96.77797568 231.39217401 C91.22516903 241.50501277 81.79508661 248.42654641 71.02016318 251.97029901 C59.84111969 254.07367304 48.42250203 252.93197395 38.61391318 247.10701776 C30.58710934 241.54403981 24.62287965 234.71167533 21.66469443 225.36092401 C21.37207724 224.71123651 21.07946005 224.06154901 20.77797568 223.39217401 C19.78797568 223.06217401 18.79797568 222.73217401 17.77797568 222.39217401 C17.63899863 222.94622918 17.50002158 223.50028436 17.3568331 224.07112908 C14.9538257 233.26327599 11.98965189 242.26986946 9.00966513 251.28743768 C8.40040357 253.13820116 7.796494 254.99073568 7.19814169 256.84505486 C2.20542274 272.31519999 -3.1026962 288.14123284 -14.22202432 300.39217401 C-14.82530557 301.07537713 -15.42858682 301.75858026 -16.05014932 302.46248651 C-27.23231458 314.41740302 -42.97365546 321.43115243 -59.23764932 322.61092401 C-75.76634771 323.09001671 -91.82185365 318.51756078 -104.22202432 307.39217401 C-104.92198526 306.77342401 -105.6219462 306.15467401 -106.34311807 305.51717401 C-118.80381248 293.83380079 -125.91496705 276.25768432 -126.65740335 259.32231927 C-126.68156848 257.19323407 -126.68216789 255.06378779 -126.66269815 252.93465447 C-126.65579115 251.74323783 -126.64888416 250.55182118 -126.64176786 249.324301 C-126.37038073 233.55480171 -124.38587336 217.94105 -122.48416626 202.3016727 C-121.949942 197.8813992 -121.43364302 193.45902496 -120.91484964 189.03691888 C-120.0439085 181.6349587 -119.16078679 174.23453864 -118.26914346 166.8350451 C-117.24318813 158.32032002 -116.23329456 149.80381345 -115.2325955 141.28608549 C-114.15748694 132.13558685 -113.07216702 122.98632209 -111.98312151 113.83747268 C-111.67347015 111.23123116 -111.36553463 108.62479159 -111.05793703 106.01830697 C-110.57267705 101.91158756 -110.08040642 97.80576301 -109.58297479 93.70050073 C-109.40298752 92.20694911 -109.22514649 90.7131368 -109.04977357 89.21903634 C-105.68404468 60.59504823 -96.91531396 38.40712718 -74.72202432 19.51717401 C-51.91154711 1.69954803 -27.77297147 -0.07348176 0 0 Z " fill="#6C90AB" transform="translate(126.22202432155609,94.60782599449158)"/>
<path d="M0 0 C3.83444997 0.00684683 7.66886037 -0.00371841 11.50330222 -0.01193976 C18.99639875 -0.02522015 26.4894047 -0.0224248 33.98250466 -0.01370184 C40.07755465 -0.00690264 46.17257942 -0.0060182 52.26763213 -0.00927329 C53.13799436 -0.00973299 54.0083566 -0.01019269 54.90509345 -0.01066632 C56.67371075 -0.01162558 58.44232803 -0.01259822 60.21094532 -0.01358409 C76.7625644 -0.02212144 93.31413348 -0.01233018 109.86574436 0.00381701 C124.03890574 0.01721631 138.21199337 0.01489207 152.38515341 0.00106072 C168.87951492 -0.01502851 185.3738327 -0.02129514 201.86820096 -0.01210248 C203.63030179 -0.01114693 205.39240262 -0.01020382 207.15450346 -0.00927329 C208.0212861 -0.00881046 208.88806873 -0.00834764 209.78111751 -0.00787079 C215.8617098 -0.00529073 221.94227412 -0.00963059 228.02286208 -0.01671195 C235.44337854 -0.02516452 242.86379992 -0.02276852 250.28430562 -0.00686972 C254.06356747 0.00096318 257.84267134 0.00419082 261.62193167 -0.00581717 C297.41455691 -0.09272932 297.41455691 -0.09272932 312.52797568 6.57967401 C313.2320455 6.88228143 313.93611533 7.18488885 314.6615206 7.49666619 C335.1872462 16.63167765 353.34858029 34.43121117 361.77797568 55.39217401 C366.05732857 67.23627863 367.28850892 79.39493602 368.71547568 91.82967401 C368.99472443 94.20175496 369.27479156 96.57373967 369.55556357 98.9456408 C370.03996404 103.04771813 370.52272695 107.14995286 370.99964011 111.25290704 C372.23095419 121.83304449 373.50489336 132.40758788 374.79617083 142.98057103 C375.99572605 152.80520636 377.18245495 162.63134406 378.36167872 172.45844007 C379.10723492 178.66833785 379.85788863 184.87751712 380.62120688 191.08525872 C389.24662732 261.35443454 389.24662732 261.35443454 381.77797568 280.39217401 C381.21723349 281.86943963 381.21723349 281.86943963 380.64516318 283.37654901 C374.35213681 298.46314202 363.60196718 310.40657213 348.77797568 317.39217401 C330.85225744 324.14768523 313.81356335 323.83484657 296.07094443 316.95467401 C277.99170089 308.66254025 266.08984516 293.57571118 258.77797568 275.39217401 C255.98924725 267.85470216 253.48646588 260.21803214 250.98671591 252.58089471 C249.82710746 249.03884044 248.65423165 245.50138672 247.47914755 241.96443963 C246.73555071 239.71534124 245.99268439 237.46600116 245.25063193 235.21639276 C244.90073706 234.1582084 244.55084219 233.10002404 244.19034445 232.00977349 C243.87258551 231.03728158 243.55482657 230.06478967 243.22743857 229.0628283 C242.80610396 227.77834046 242.80610396 227.77834046 242.37625754 226.46790338 C241.77797568 224.39217401 241.77797568 224.39217401 241.77797568 222.39217401 C240.78797568 222.39217401 239.79797568 222.39217401 238.77797568 222.39217401 C238.63102255 222.94904901 238.48406943 223.50592401 238.33266318 224.07967401 C235.23469225 234.61989692 228.00499329 243.37330364 218.34047568 248.74764276 C208.06538439 253.42889323 195.52134221 254.4247777 184.71547568 250.76717401 C173.71878378 245.99972601 164.91837535 237.35168526 160.37172568 226.23983026 C159.77797568 224.39217401 159.77797568 224.39217401 159.77797568 222.39217401 C139.97797568 222.39217401 120.17797568 222.39217401 99.77797568 222.39217401 C98.78797568 225.36217401 97.79797568 228.33217401 96.77797568 231.39217401 C91.22516903 241.50501277 81.79508661 248.42654641 71.02016318 251.97029901 C59.84111969 254.07367304 48.42250203 252.93197395 38.61391318 247.10701776 C30.58710934 241.54403981 24.62287965 234.71167533 21.66469443 225.36092401 C21.37207724 224.71123651 21.07946005 224.06154901 20.77797568 223.39217401 C19.78797568 223.06217401 18.79797568 222.73217401 17.77797568 222.39217401 C17.63899863 222.94622918 17.50002158 223.50028436 17.3568331 224.07112908 C14.9538257 233.26327599 11.98965189 242.26986946 9.00966513 251.28743768 C8.40040357 253.13820116 7.796494 254.99073568 7.19814169 256.84505486 C2.20542274 272.31519999 -3.1026962 288.14123284 -14.22202432 300.39217401 C-14.82530557 301.07537713 -15.42858682 301.75858026 -16.05014932 302.46248651 C-27.23231458 314.41740302 -42.97365546 321.43115243 -59.23764932 322.61092401 C-75.76634771 323.09001671 -91.82185365 318.51756078 -104.22202432 307.39217401 C-104.92198526 306.77342401 -105.6219462 306.15467401 -106.34311807 305.51717401 C-118.80381248 293.83380079 -125.91496705 276.25768432 -126.65740335 259.32231927 C-126.68156848 257.19323407 -126.68216789 255.06378779 -126.66269815 252.93465447 C-126.65579115 251.74323783 -126.64888416 250.55182118 -126.64176786 249.324301 C-126.37038073 233.55480171 -124.38587336 217.94105 -122.48416626 202.3016727 C-121.949942 197.8813992 -121.43364302 193.45902496 -120.91484964 189.03691888 C-120.0439085 181.6349587 -119.16078679 174.23453864 -118.26914346 166.8350451 C-117.24318813 158.32032002 -116.23329456 149.80381345 -115.2325955 141.28608549 C-114.15748694 132.13558685 -113.07216702 122.98632209 -111.98312151 113.83747268 C-111.67347015 111.23123116 -111.36553463 108.62479159 -111.05793703 106.01830697 C-110.57267705 101.91158756 -110.08040642 97.80576301 -109.58297479 93.70050073 C-109.40298752 92.20694911 -109.22514649 90.7131368 -109.04977357 89.21903634 C-105.68404468 60.59504823 -96.91531396 38.40712718 -74.72202432 19.51717401 C-51.91154711 1.69954803 -27.77297147 -0.07348176 0 0 Z M-72.82749307 46.27498651 C-80.63022078 56.07740825 -85.03363777 66.20808085 -86.73374307 78.50936151 C-86.85838434 79.37612512 -86.9830256 80.24288873 -87.11144388 81.1359179 C-88.37714492 90.13059867 -89.38864166 99.15265185 -90.35578287 108.18355584 C-90.8856233 113.12646192 -91.43012237 118.06776591 -91.97202432 123.00936151 C-92.07949487 123.99271478 -92.18696542 124.97606805 -92.29769266 125.9892199 C-93.2157128 134.3778777 -94.17167299 142.76147087 -95.15952432 151.14217401 C-95.27514719 152.12365411 -95.27514719 152.12365411 -95.39310586 153.12496209 C-96.59212834 163.28186072 -97.83924067 173.43274013 -99.09121072 183.5832293 C-109.31359133 236.92047501 -109.31359133 236.92047501 -95.54624307 286.90389276 C-89.59822476 294.40578309 -81.19410775 298.40147953 -72.22202432 301.39217401 C-63.23310461 301.88627953 -54.52080426 302.31958015 -46.22202432 298.39217401 C-45.25136026 298.00932244 -45.25136026 298.00932244 -44.26108682 297.61873651 C-33.29311311 292.89340396 -24.91736963 283.20299433 -20.35224283 272.31835198 C-18.48690045 267.43864399 -16.84216775 262.48665255 -15.22391641 257.52043939 C-14.33358198 254.78842584 -13.42501804 252.06307476 -12.5115751 249.33870721 C-11.00875927 244.84914755 -9.51966285 240.35521276 -8.03623331 235.85921502 C-6.07784976 229.92534224 -4.09800124 223.99933857 -2.09702432 218.07967401 C-1.75558389 217.03287469 -1.41414346 215.98607537 -1.06235635 214.90755486 C-0.74121866 213.95759637 -0.42008096 213.00763787 -0.08921182 212.02889276 C0.17778525 211.2215368 0.44478232 210.41418084 0.71987021 209.58235955 C2.02188448 206.88730417 3.46940095 205.2901882 5.77797568 203.39217401 C8.64393827 202.9432883 11.15948678 202.69792202 14.02797568 202.64217401 C14.7730538 202.61252557 15.51813193 202.58287713 16.28578818 202.55233026 C18.11594239 202.48193971 19.94696337 202.43475569 21.77797568 202.39217401 C21.9971163 201.76311151 22.21625693 201.13404901 22.44203818 200.48592401 C26.78719615 188.75753013 33.83374117 180.57485142 45.15297568 174.95467401 C54.63087672 171.54855332 66.95828624 171.83411054 76.34047568 175.32967401 C86.53860988 180.42160954 93.32467981 187.95732944 97.77797568 198.39217401 C98.10797568 199.71217401 98.43797568 201.03217401 98.77797568 202.39217401 C119.23797568 202.39217401 139.69797568 202.39217401 160.77797568 202.39217401 C162.09797568 199.09217401 163.41797568 195.79217401 164.77797568 192.39217401 C170.0872618 184.11956539 177.26841935 177.44735819 186.64516318 174.05233026 C198.62831302 171.52720267 210.79495238 172.22283924 221.16078818 178.93514276 C229.81692168 185.17727203 234.30283896 192.41648741 237.77797568 202.39217401 C239.33258505 202.46565057 239.33258505 202.46565057 240.91860068 202.54061151 C242.28841776 202.61566998 243.65820816 202.69121647 245.02797568 202.76717401 C245.70988974 202.79811151 246.3918038 202.82904901 247.09438193 202.86092401 C253.76795097 203.2496756 253.76795097 203.2496756 256.77797568 205.39217401 C258.18446982 208.18221307 258.18446982 208.18221307 259.50063193 211.90779901 C259.74886206 212.602221 259.99709219 213.296643 260.25284445 214.01210809 C264.52046724 226.11161304 268.40011445 238.3595457 272.31630576 250.57625604 C281.13401015 278.22901006 281.13401015 278.22901006 302.29750693 297.13826776 C312.94194505 302.51915695 324.77800106 303.26277047 336.21547568 299.76717401 C347.8042208 295.2761427 355.62182344 288.22832736 361.09047568 277.07967401 C368.35202437 260.15542453 366.15846806 242.66773545 363.62099326 224.92171502 C361.73536974 211.65204697 360.28980549 198.34059084 358.84047568 185.01717401 C356.90890977 167.33148729 354.8830834 149.66619636 352.60243857 132.02205682 C351.47308031 123.2380714 350.44837945 114.45108761 349.53188193 105.64217401 C349.31992714 103.64296623 349.10776998 101.6437799 348.89540732 99.64461541 C348.49178414 95.84119355 348.11000594 92.03645517 347.74062216 88.22957635 C345.72620311 68.6048293 339.50190966 52.20143936 324.77797568 38.39217401 C317.42823667 32.54409487 309.64045165 27.63425467 300.77797568 24.39217401 C300.18885901 24.14451791 299.59974234 23.89686181 298.99277365 23.64170098 C290.00289735 20.34215162 280.63653189 21.0167978 271.20766318 21.09920526 C269.31623799 21.10480911 267.42480841 21.10907547 265.53337729 21.11206841 C260.58497963 21.12345507 255.63685132 21.15286829 250.68855917 21.18618035 C245.62725589 21.21701528 240.56590857 21.23060229 235.50453818 21.24568963 C225.59556647 21.27774455 215.68679358 21.32886514 205.77797568 21.39217401 C205.77433005 22.04426339 205.77068442 22.69635278 205.76692832 23.36820245 C205.72488712 30.19889333 205.65539148 37.02892577 205.57045615 43.85921502 C205.54235414 46.40309311 205.52108646 48.94705677 205.50697958 51.49105096 C205.48540127 55.16296127 205.43867223 58.83385429 205.38735068 62.50545526 C205.38612204 63.6298652 205.3848934 64.75427514 205.38362753 65.91275811 C205.18478327 76.80648906 202.54704701 85.57377685 194.93422568 93.51326776 C189.3011589 98.42179153 183.12673598 100.53953075 175.71547568 100.51717401 C174.42963583 100.52104119 174.42963583 100.52104119 173.11781943 100.52498651 C170.77797568 100.39217401 170.77797568 100.39217401 167.77797568 99.39217401 C165.77791192 95.70784603 165.25924148 92.5420476 165.77797568 88.39217401 C167.09047568 85.70467401 167.09047568 85.70467401 169.77797568 83.39217401 C172.54482214 82.53147063 175.27352136 81.89300613 178.12172568 81.36092401 C181.48619031 80.39449349 181.48619031 80.39449349 184.77797568 75.39217401 C184.77797568 57.57217401 184.77797568 39.75217401 184.77797568 21.39217401 C148.47797568 21.39217401 112.17797568 21.39217401 74.77797568 21.39217401 C70.62103983 53.05191049 70.62103983 53.05191049 78.77797568 80.39217401 C81.42398039 81.43959062 81.42398039 81.43959062 84.27797568 81.89217401 C87.94227253 82.76788714 89.55714099 83.20215346 92.46547568 85.70467401 C94.49386661 89.8580459 94.19888149 92.81377722 93.02797568 97.20467401 C91.77797568 99.39217401 91.77797568 99.39217401 89.99281943 100.00936151 C80.98237241 101.56672272 74.14078685 100.04159605 66.61391318 94.91951776 C60.29970916 89.91781682 56.41939949 83.28502697 54.77797568 75.39217401 C54.66536338 73.59068136 54.60217064 71.78580877 54.57265341 69.98104119 C54.55270819 68.90022271 54.53276297 67.81940423 54.51221335 66.70583367 C54.48714461 64.96502526 54.48714461 64.96502526 54.46156943 63.18904901 C54.44078833 61.99612237 54.42000723 60.80319573 54.39859641 59.57411981 C54.33321329 55.76352978 54.27426792 51.95287087 54.21547568 48.14217401 C54.17227979 45.55883355 54.12866516 42.97550006 54.0846163 40.39217401 C53.97754334 34.05891348 53.87575595 27.72558444 53.77797568 21.39217401 C42.91994556 21.2990812 32.06201196 21.22821093 21.20366251 21.18492532 C16.16049942 21.16413982 11.11761139 21.13598922 6.07460654 21.09041619 C1.19866072 21.04663365 -3.6770222 21.02296912 -8.55314958 21.01266503 C-10.4041018 21.00533138 -12.25504128 20.99101216 -14.10588014 20.96925378 C-37.68680854 20.703316 -56.83160653 28.5763894 -72.82749307 46.27498651 Z " fill="#010101" transform="translate(126.22202432155609,94.60782599449158)"/>
<path d="M0 0 C1.39375867 0.73637341 2.77050067 1.50618704 4.125 2.3125 C5.06279297 2.82103516 5.06279297 2.82103516 6.01953125 3.33984375 C12.4403063 7.27064503 16.31501439 14.09775648 18.5 21.1875 C19.125 24.3125 19.125 24.3125 19.125 28.3125 C20.23875 28.374375 21.3525 28.43625 22.5 28.5 C31.2250277 29.60031433 38.0420702 34.23868373 43.4609375 40.97265625 C49.02083716 48.28408499 50.01979747 55.23833588 49.125 64.3125 C47.18187603 72.76139981 42.1711318 79.64442829 35.1796875 84.7265625 C30.09306354 87.58907558 24.88456758 88.07645215 19.125 88.3125 C19.0425 89.446875 18.96 90.58125 18.875 91.75 C17.61928227 101.37151287 12.66020583 109.02583684 5.046875 114.921875 C-2.66912273 119.59346546 -11.17949195 119.22781664 -19.875 118.3125 C-23.07726115 117.4914074 -25.27701486 116.32982948 -27.875 114.3125 C-28.89980469 113.58353516 -28.89980469 113.58353516 -29.9453125 112.83984375 C-36.00523944 108.11041737 -39.89203456 102.27134058 -41.3984375 94.671875 C-41.64411413 92.56038397 -41.77226203 90.43575134 -41.875 88.3125 C-42.48085937 88.30992187 -43.08671875 88.30734375 -43.7109375 88.3046875 C-52.48423632 87.89976602 -59.21712857 84.45916267 -65.25 78.0625 C-70.13412532 71.74921301 -72.56241343 64.7394777 -72.19921875 56.76171875 C-70.85651149 46.61861689 -65.90279672 39.65006178 -58.2421875 33.08203125 C-52.73448645 28.96488838 -47.64229871 27.88954383 -40.875 28.3125 C-40.99875 26.889375 -40.99875 26.889375 -41.125 25.4375 C-41.06670972 18.2240781 -38.01950766 12.11141853 -33.125 6.9375 C-24.22974953 -1.29268501 -11.55886295 -4.94241036 0 0 Z " fill="#020202" transform="translate(122.875,157.6875)"/>
<path d="M0 0 C6.93525249 4.46119657 13.16312972 10.24688721 15.68359375 18.328125 C16.24702895 21.32724363 16.11708336 24.28275882 16.05859375 27.32421875 C17.33734375 27.38609375 18.61609375 27.44796875 19.93359375 27.51171875 C28.15997279 28.4559415 35.00588978 32.38479393 40.58984375 38.4296875 C46.36798573 45.88287596 48.00447899 54.0410307 47.05859375 63.32421875 C45.02278892 71.45517418 40.71564471 78.16182942 33.74609375 82.89453125 C27.610895 86.42630684 23.18239126 87.46121486 16.05859375 87.32421875 C16.105 87.88109375 16.15140625 88.43796875 16.19921875 89.01171875 C16.58514088 97.17121528 13.92780835 102.20696557 8.93359375 108.51171875 C3.12857042 114.69480032 -2.76075781 117.47705958 -11.20385742 117.91430664 C-20.4147284 118.05802236 -27.21124276 116.59924624 -34.21484375 110.26953125 C-39.79692025 104.44563195 -43.05732448 98.97022417 -43.12890625 90.82421875 C-43.03609375 89.09171875 -43.03609375 89.09171875 -42.94140625 87.32421875 C-43.91078125 87.38609375 -44.88015625 87.44796875 -45.87890625 87.51171875 C-54.148821 87.42852041 -59.9963472 84.200481 -65.92578125 78.58203125 C-72.47610658 71.24465132 -74.31637772 64.05566269 -74.22265625 54.42578125 C-73.80199413 49.78681284 -72.27855508 46.30659735 -69.94140625 42.32421875 C-69.59078125 41.69773438 -69.24015625 41.07125 -68.87890625 40.42578125 C-65.04955182 34.33604399 -59.26324 30.75716664 -52.75390625 27.94921875 C-49.73206891 27.27769934 -47.02747732 27.17726298 -43.94140625 27.32421875 C-43.87953125 26.02484375 -43.81765625 24.72546875 -43.75390625 23.38671875 C-42.78450167 14.7166919 -37.94094576 8.35914123 -31.28125 2.984375 C-22.26692058 -3.85066599 -10.20964129 -5.33898673 0 0 Z " fill="#010202" transform="translate(413.94140625,158.67578125)"/>
<path d="M0 0 C36.3 0 72.6 0 110 0 C110 54 110 54 106 59 C103.34375 59.96875 103.34375 59.96875 100.5 60.5 C96.69474347 61.39296687 95.27053042 61.74235199 92.375 64.5 C90.8963822 67.01067927 90.8963822 67.01067927 90 70 C81.75 70 73.5 70 65 70 C64.01 67.69 63.02 65.38 62 63 C58.89801283 60.53980328 55.85643496 60.68518898 52 61 C49.20825949 61.39980539 49.20825949 61.39980539 47 63 C46.34 65.31 45.68 67.62 45 70 C36.75 70 28.5 70 20 70 C19.01 68.02 18.02 66.04 17 64 C13.94909863 60.71441391 10.49027316 60.39082416 6.21875 59.8203125 C4 59 4 59 0 54 C0 36.18 0 18.36 0 0 Z " fill="#FE5C7C" transform="translate(201,116)"/>
<path d="M0 0 C4.80224854 4.68219233 5.10150983 8.39886686 5.25 14.8125 C5.25193359 15.88081055 5.25193359 15.88081055 5.25390625 16.97070312 C5.38635659 20.73856683 5.89961373 22.8542965 8.05078125 25.9765625 C11.7114396 28.48811352 14.64758224 28.638181 18.9375 28.5625 C24.74243528 28.4920386 28.39258873 29.20283393 33 33 C35.33909307 36.5086396 35.41291057 37.87089433 35 42 C33.33237678 45.49406769 32.25993978 46.82670681 29 49 C25.43484808 49.28680957 21.90972891 49.41448011 18.3359375 49.47851562 C13.76824036 49.64221806 10.72771667 50.07107976 7 53 C5.13769627 56.72460745 5.66856031 61.47829977 5.5703125 65.61523438 C5.37958115 70.18881319 4.94211169 73.28401533 2 77 C-1.02207395 79.01471597 -1.91726699 79.33719034 -5.375 79.4375 C-6.12523437 79.47746094 -6.87546875 79.51742187 -7.6484375 79.55859375 C-11.34640128 78.68017378 -12.74366712 77.01236108 -15 74 C-15.64947825 71.15952382 -15.65510116 68.40476165 -15.625 65.5 C-15.5531476 58.24936413 -15.5531476 58.24936413 -19 52 C-23.06352469 48.83523136 -28.78906196 49.67613331 -33.71289062 49.69726562 C-37.9006697 49.58308695 -39.55630088 49.34795352 -42.96875 46.671875 C-45.54712627 43.28031852 -46.07464809 41.25494103 -46 37 C-44.02061533 33.25330759 -42.52983947 31.35322631 -39 29 C-35.43415759 28.77849655 -31.9071021 28.68203028 -28.3359375 28.69726562 C-24.06953013 28.58165494 -22.46140206 28.37481349 -19.0234375 25.58203125 C-15.39450168 20.95128496 -15.73509652 16.69377699 -15.65820312 11.02929688 C-15.46152552 6.08491336 -14.5296194 3.476642 -11 0 C-7.50312647 -1.74843676 -3.69450223 -0.97950326 0 0 Z " fill="#FBCA67" transform="translate(117,177)"/>
<path d="M0 0 C0.77085937 0.04382813 1.54171875 0.08765625 2.3359375 0.1328125 C5.75579443 1.24163983 6.80682105 2.80529428 8.625 5.875 C9.04828456 9.28596808 9.13245503 12.4817763 9.11328125 15.90429688 C9.22033313 21.03792123 10.38244326 23.91254727 13.625 27.875 C17.16809868 29.64654934 21.5758434 29.16278631 25.5078125 29.21679688 C30.59535979 29.42010964 33.56694296 30.55760061 37.625 33.875 C39.34870774 37.32241547 39.12806672 41.10535339 38.625 44.875 C36.74879387 47.37660818 35.38608697 48.49445652 32.625 49.875 C29.30067089 50.07423837 25.98328159 50.22033314 22.65429688 50.3046875 C18.17960709 50.50337863 15.13838965 51.03051818 11.625 53.875 C8.46023136 57.93852469 9.30113331 63.66406196 9.32226562 68.58789062 C9.20915085 72.73664876 8.94639163 74.44925323 6.36328125 77.87109375 C2.84239229 80.44772147 1.00126297 80.60006736 -3.21875 80.375 C-6.66871778 79.57500747 -8.28427996 77.61907005 -10.375 74.875 C-12.23984589 71.14530822 -11.66461151 66.31887223 -11.71679688 62.171875 C-11.8873266 57.42575194 -11.8873266 57.42575194 -14.29296875 53.3984375 C-18.81899046 50.0867143 -23.57685085 50.63027676 -28.99023438 50.62109375 C-33.26421031 50.47998942 -34.91614579 50.24785664 -38.35546875 47.453125 C-41.29643501 43.69869998 -41.92765303 41.66465958 -41.375 36.875 C-39.56189858 33.94562346 -37.50204101 31.43852051 -34.375 29.875 C-30.83543523 29.74185023 -27.30187265 29.62710241 -23.75976562 29.62109375 C-19.75466848 29.48886639 -17.76972423 29.13968538 -14.36328125 26.85546875 C-11.36641132 22.36310773 -11.80663369 18.44824695 -11.92578125 13.20117188 C-11.88952188 9.12199295 -11.59602359 6.6296142 -8.96875 3.40234375 C-5.68883217 0.20639972 -4.43228749 -0.33867978 0 0 Z " fill="#7EB3FB" transform="translate(401.375,176.125)"/>
<path d="M0 0 C1.24501785 -0.00960754 2.49003571 -0.01921509 3.77278137 -0.02911377 C5.13847674 -0.03396208 6.50417423 -0.03824083 7.86987305 -0.04199219 C9.26751203 -0.04774443 10.66515098 -0.05350215 12.06278992 -0.05926514 C14.99580249 -0.0697762 17.92878765 -0.07561786 20.86181641 -0.07910156 C24.61454332 -0.08458029 28.3669063 -0.10859411 32.11951923 -0.13707352 C35.00806219 -0.15572843 37.89651809 -0.16090705 40.7851162 -0.16243744 C42.16817396 -0.16545912 43.55123036 -0.17347137 44.9342289 -0.18662262 C46.87274588 -0.20373737 48.81141302 -0.19995021 50.75 -0.1953125 C52.40307915 -0.20078094 52.40307915 -0.20078094 54.08955383 -0.20635986 C58.30497219 0.31356483 60.91306968 2.0051107 63.8815918 4.97363281 C65.51471339 7.9820147 65.5432943 9.77397211 65.0690918 13.16113281 C61.91119706 18.74008018 61.91119706 18.74008018 59.0690918 20.16113281 C57.00252392 20.27325864 54.93232498 20.32046469 52.86279297 20.33813477 C51.55771286 20.35097 50.25263275 20.36380524 48.90800476 20.37702942 C47.47602721 20.38519694 46.04404537 20.39264065 44.61206055 20.39941406 C43.53194922 20.40552735 43.53194922 20.40552735 42.43001747 20.41176414 C38.6182242 20.4326259 34.80646693 20.44692672 30.99462891 20.45629883 C27.0602034 20.46735942 23.12634409 20.50175414 19.19211864 20.54147053 C16.16460632 20.56763552 13.13722887 20.57599054 10.10961342 20.57958031 C8.6595509 20.58444719 7.20949444 20.59606427 5.75954247 20.6146183 C3.72769191 20.63900078 1.69556603 20.63562582 -0.33642578 20.63110352 C-1.49177322 20.63696976 -2.64712067 20.642836 -3.83747864 20.64888 C-7.59225163 20.05685748 -9.24498462 18.79928369 -11.9309082 16.16113281 C-13.16537559 13.15689801 -13.32596199 10.37720448 -12.9309082 7.16113281 C-9.83391349 1.30720555 -6.28060803 0.03899731 0 0 Z " fill="#010202" transform="translate(229.930908203125,215.8388671875)"/>
<path d="M0 0 C4.72104457 2.88551489 8.81272995 6.395324 10.30859375 11.88671875 C11.27299753 19.13829334 11.2178683 25.30564716 6.734375 31.3046875 C2.91244418 35.54546005 -0.98201592 38.41681518 -6.7265625 39.14453125 C-12.5563385 39.44451972 -16.93279061 38.30290388 -21.69140625 34.88671875 C-26.86130131 30.1524246 -29.18972698 25.61347905 -30.12890625 18.63671875 C-29.40737575 12.4521716 -27.12926487 7.44621688 -22.8125 2.9140625 C-16.13435148 -2.2882521 -7.84854073 -3.24649362 0 0 Z " fill="#96E7F6" transform="translate(334.69140625,288.11328125)"/>
<path d="M0 0 C4.70450069 2.90046075 8.81693932 6.40136806 10.30078125 11.89453125 C10.99117658 17.64298075 11.42609305 23.6250263 8.67578125 28.89453125 C4.54817939 34.10834412 0.11732507 38.29246327 -6.73046875 39.1484375 C-12.54976398 39.45733845 -16.95677292 38.32184504 -21.69921875 34.89453125 C-26.90306302 29.91694108 -28.85264222 26.0522205 -29.13671875 18.76953125 C-29.07569837 11.92762073 -27.43897827 7.80356789 -22.69921875 2.89453125 C-16.36066083 -2.40916007 -7.6701382 -3.14131565 0 0 Z " fill="#97E8F6" transform="translate(195.69921875,288.10546875)"/>
<path d="M0 0 C2.0898686 -0.0171578 4.17813146 -0.06103617 6.26757812 -0.10522461 C7.6061082 -0.11535709 8.94465169 -0.12387146 10.28320312 -0.13061523 C12.10223145 -0.15248901 12.10223145 -0.15248901 13.95800781 -0.17480469 C18.02576609 0.38691946 20.18060902 1.74780479 23.36132812 4.29516602 C25.09764449 7.76779874 24.96323215 11.50709615 24.36132812 15.29516602 C22.17973667 18.05086048 20.48955319 19.73105348 17.36132812 21.29516602 C13.15203109 21.55335048 8.93886229 21.56621974 4.72265625 21.59033203 C2.63278765 21.60748983 0.54452479 21.6513682 -1.54492188 21.69555664 C-2.88345195 21.70568912 -4.22199544 21.71420349 -5.56054688 21.72094727 C-7.3795752 21.74282104 -7.3795752 21.74282104 -9.23535156 21.76513672 C-13.30310984 21.20341257 -15.45795277 19.84252724 -18.63867188 17.29516602 C-20.37498824 13.82253329 -20.2405759 10.08323588 -19.63867188 6.29516602 C-14.03215815 -0.78674606 -8.34113039 0.04770254 0 0 Z " fill="#040506" transform="translate(253.638671875,255.704833984375)"/>
<path d="M0 0 C3.49406769 1.66762322 4.82670681 2.74006022 7 6 C7.45971784 10.96495273 7.15065843 14.06167696 4 18 C0.57840405 20.56619697 -2.84844133 20.50984054 -7 20 C-10.87949018 16.79520377 -12.80826445 14.69366403 -13.375 9.6875 C-13 6 -13 6 -10.625 3.125 C-6.83194127 0.05442865 -4.87552277 -0.38239394 0 0 Z " fill="#050303" transform="translate(259,176)"/>
</svg>
